<?xml version="1.0" encoding="UTF-8" standalone="no"?>
<svg
   xmlns:dc="http://purl.org/dc/elements/1.1/"
   xmlns:cc="http://creativecommons.org/ns#"
   xmlns:rdf="http://www.w3.org/1999/02/22-rdf-syntax-ns#"
   xmlns:svg="http://www.w3.org/2000/svg"
   xmlns="http://www.w3.org/2000/svg"
   xmlns:sodipodi="http://sodipodi.sourceforge.net/DTD/sodipodi-0.dtd"
   xmlns:inkscape="http://www.inkscape.org/namespaces/inkscape"
   id="OutlineExpandedColored"
   enable-background="new 0 0 64 64"
   height="512"
   viewBox="0 0 64 64"
   width="512"
   version="1.1"
   sodipodi:docname="logo.svg"
   inkscape:version="0.92.5 (2060ec1f9f, 2020-04-08)">
  <metadata
     id="metadata29">
    <rdf:RDF>
      <cc:Work
         rdf:about="">
        <dc:format>image/svg+xml</dc:format>
        <dc:type
           rdf:resource="http://purl.org/dc/dcmitype/StillImage" />
      </cc:Work>
    </rdf:RDF>
  </metadata>
  <defs
     id="defs27" />
  <sodipodi:namedview
     pagecolor="#ffffff"
     bordercolor="#666666"
     borderopacity="1"
     objecttolerance="10"
     gridtolerance="10"
     guidetolerance="10"
     inkscape:pageopacity="0"
     inkscape:pageshadow="2"
     inkscape:window-width="1920"
     inkscape:window-height="1050"
     id="namedview25"
     showgrid="false"
     inkscape:zoom="0.921875"
     inkscape:cx="162.05784"
     inkscape:cy="276.12383"
     inkscape:window-x="0"
     inkscape:window-y="0"
     inkscape:window-maximized="1"
     inkscape:current-layer="OutlineExpandedColored" />
  <circle
     cx="24"
     cy="32"
     r="9"
     id="circle2"
     style="fill:#153049;fill-opacity:1"
     fill="#4ac3ed" />
  <circle
     cx="10"
     cy="10"
     fill="#4ac3ed"
     r="7"
     id="circle4"
     style="fill:#153049;fill-opacity:1" />
  <circle
     cx="32"
     cy="10"
     r="7"
     id="circle6"
     fill="#76cc7a"
     style="fill:#153049;fill-opacity:1" />
  <circle
     cx="54"
     cy="21"
     r="7"
     id="circle8"
     fill="#76cc7a"
     style="fill:#153049;fill-opacity:1" />
  <circle
     cx="54"
     cy="54"
     fill="#4ac3ed"
     r="7"
     id="circle10"
     style="fill:#153049;fill-opacity:1" />
  <circle
     cx="10"
     cy="52"
     r="7"
     id="circle12"
     fill="#76cc7a"
     style="fill:#153049;fill-opacity:1" />
  <g
     id="g22"
     fill="#153049">
    <path
       d="m 33.773674,7.1065593 -3.077938,3.0779377 -0.927038,-0.9270379 -1.01379,1.0137909 1.433933,1.433933 c 0.139808,0.139809 0.323352,0.210071 0.506895,0.210071 0.183544,0 0.367087,-0.07026 0.506895,-0.210071 l 3.584833,-3.5848329 z"
       id="path14"
       inkscape:connector-curvature="0"
       style="stroke-width:0.71696657" />
    <path
       d="m 52.996522,23.186441 c 0.183542,0 0.367084,-0.07026 0.506891,-0.210074 l 3.584799,-3.584874 -1.013781,-1.013802 -3.077909,3.077973 -0.927029,-0.927049 -1.013781,1.013803 1.43392,1.433949 c 0.139807,0.13981 0.323349,0.210074 0.50689,0.210074 z"
       id="path16"
       inkscape:connector-curvature="0"
       style="stroke-width:0.71696734" />
    <path
       d="m54 46c-2.282 0-4.339.966-5.798 2.504l-15.599-11.432c.882-1.489 1.397-3.22 1.397-5.072 0-.859-.12-1.688-.325-2.484l13.224-4.846c1.333 2.568 4.013 4.33 7.101 4.33 4.411 0 8-3.589 8-8s-3.589-8-8-8-8 3.589-8 8c0 .617.077 1.215.21 1.792l-13.225 4.847c-.985-2.022-2.628-3.659-4.653-4.638l1.899-5.205c.57.13 1.16.204 1.769.204 4.411 0 8-3.589 8-8s-3.589-8-8-8-8 3.589-8 8c0 3.097 1.772 5.782 4.352 7.111l-1.9 5.206c-.786-.2-1.605-.317-2.452-.317-1.616 0-3.139.394-4.492 1.078l-4.403-6.925c1.767-1.469 2.895-3.681 2.895-6.153 0-4.411-3.589-8-8-8s-8 3.589-8 8 3.589 8 8 8c1.223 0 2.378-.284 3.416-.777l4.405 6.93c-2.322 1.833-3.821 4.665-3.821 7.847 0 3.023 1.354 5.732 3.481 7.567l-3.753 5.361c-1.114-.59-2.382-.928-3.728-.928-4.411 0-8 3.589-8 8s3.589 8 8 8 8-3.589 8-8c0-2.347-1.022-4.454-2.637-5.919l3.754-5.363c1.446.813 3.11 1.282 4.883 1.282 2.944 0 5.586-1.286 7.418-3.318l15.596 11.43c-.644 1.153-1.014 2.477-1.014 3.888 0 4.411 3.589 8 8 8s8-3.589 8-8-3.589-8-8-8zm0-31c3.309 0 6 2.691 6 6s-2.691 6-6 6-6-2.691-6-6 2.691-6 6-6zm-28-5c0-3.309 2.691-6 6-6s6 2.691 6 6-2.691 6-6 6-6-2.691-6-6zm-22 0c0-3.309 2.691-6 6-6s6 2.691 6 6-2.691 6-6 6-6-2.691-6-6zm12 42c0 3.309-2.691 6-6 6s-6-2.691-6-6 2.691-6 6-6 6 2.691 6 6zm8-12c-4.411 0-8-3.589-8-8s3.589-8 8-8 8 3.589 8 8-3.589 8-8 8zm30 20c-3.309 0-6-2.691-6-6s2.691-6 6-6 6 2.691 6 6-2.691 6-6 6z"
       id="path18" />
    <path
       style="stroke-width:0.71696734"
       inkscape:connector-curvature="0"
       id="path836"
       d="m 8.9287253,54.508475 c 0.183542,0 0.367084,-0.07026 0.506891,-0.210074 l 3.5847987,-3.584874 -1.013781,-1.013802 -3.0779087,3.077973 -0.9270289,-0.927049 -1.013781,1.013803 1.43392,1.433949 c 0.1398069,0.13981 0.3233489,0.210074 0.5068899,0.210074 z" />
  </g>
</svg>
